<svg xmlns="http://www.w3.org/2000/svg" width="1120" height="864" viewBox="0 0 1120 864"><rect width="1120" height="864" rx="25" fill="#f5f9fc"/><text x="52" y="54" font-family="Helvetica,Arial,sans-serif" font-size="22" font-weight="bold" fill="#356b7b">AI ACADEMY  /  AI-3/10</text><text x="52" y="106" font-family="Helvetica,Arial,sans-serif" font-size="38" font-weight="bold" fill="#123c55">Illustrative grids, not executed model outputs</text><text x="300.0" y="192.3" font-family="Helvetica,Arial,sans-serif" font-size="25" font-weight="bold" fill="#146b77">Left</text><text x="680.0" y="192.3" font-family="Helvetica,Arial,sans-serif" font-size="25" font-weight="bold" fill="#146b77">Right</text><text x="52" y="327.3" font-family="Helvetica,Arial,sans-serif" font-size="25" font-weight="bold" fill="#183249">Before top</text><rect x="290.0" y="282.3" width="375.0" height="105" rx="8" fill="#c9e4e8" stroke="#7ca9b8"/><text x="306.0" y="341.3" font-family="Helvetica,Arial,sans-serif" font-size="31" font-weight="bold" fill="#183249">0.2</text><rect x="670.0" y="282.3" width="375.0" height="105" rx="8" fill="#e1eff4" stroke="#7ca9b8"/><text x="686.0" y="341.3" font-family="Helvetica,Arial,sans-serif" font-size="31" font-weight="bold" fill="#183249">0.8</text><text x="52" y="445.3" font-family="Helvetica,Arial,sans-serif" font-size="25" font-weight="bold" fill="#183249">Before bottom</text><rect x="290.0" y="400.3" width="375.0" height="105" rx="8" fill="#e1eff4" stroke="#7ca9b8"/><text x="306.0" y="459.3" font-family="Helvetica,Arial,sans-serif" font-size="31" font-weight="bold" fill="#183249">0.6</text><rect x="670.0" y="400.3" width="375.0" height="105" rx="8" fill="#c9e4e8" stroke="#7ca9b8"/><text x="686.0" y="459.3" font-family="Helvetica,Arial,sans-serif" font-size="31" font-weight="bold" fill="#183249">0.3</text><text x="52" y="563.3" font-family="Helvetica,Arial,sans-serif" font-size="25" font-weight="bold" fill="#183249">After top</text><rect x="290.0" y="518.3" width="375.0" height="105" rx="8" fill="#c9e4e8" stroke="#7ca9b8"/><text x="306.0" y="577.3" font-family="Helvetica,Arial,sans-serif" font-size="31" font-weight="bold" fill="#183249">0.1</text><rect x="670.0" y="518.3" width="375.0" height="105" rx="8" fill="#e1eff4" stroke="#7ca9b8"/><text x="686.0" y="577.3" font-family="Helvetica,Arial,sans-serif" font-size="31" font-weight="bold" fill="#183249">0.9</text><text x="52" y="681.3" font-family="Helvetica,Arial,sans-serif" font-size="25" font-weight="bold" fill="#183249">After bottom</text><rect x="290.0" y="636.3" width="375.0" height="105" rx="8" fill="#e1eff4" stroke="#7ca9b8"/><text x="306.0" y="695.3" font-family="Helvetica,Arial,sans-serif" font-size="31" font-weight="bold" fill="#183249">0.4</text><rect x="670.0" y="636.3" width="375.0" height="105" rx="8" fill="#c9e4e8" stroke="#7ca9b8"/><text x="686.0" y="695.3" font-family="Helvetica,Arial,sans-serif" font-size="31" font-weight="bold" fill="#183249">0.2</text><text x="52" y="779.3" font-family="Helvetica,Arial,sans-serif" font-size="25" fill="#183249">Read a cell using both its row and column labels.</text></svg>